<?xml version="1.0" encoding="UTF-8"?><svg xmlns="http://www.w3.org/2000/svg" xmlns:xlink="http://www.w3.org/1999/xlink" width="192" zoomAndPan="magnify" viewBox="0 0 192 191.999996" height="191.999996" preserveAspectRatio="xMidYMid meet" version="1.0"><path fill="rgb(66.668701%, 18.03894%, 39.99939%)" d="M 115.394531 18.671875 C 159.652344 28.929688 187.878906 71.1875 178.226562 112.75 C 168.574219 154.308594 124.609375 179.835938 80.351562 169.578125 C 36.09375 159.320312 7.871094 117.058594 17.523438 75.5 C 27.171875 33.941406 71.140625 8.414062 115.394531 18.671875 Z M 95.761719 94.589844 C 98.304688 95.183594 100.472656 96.523438 102.054688 98.304688 C 100.640625 96.570312 98.75 95.144531 96.480469 94.234375 C 89.617188 91.488281 81.800781 94.476562 79.078125 100.890625 C 78.992188 101.09375 78.914062 101.296875 78.839844 101.5 C 72.628906 97.460938 69.894531 89.765625 72.738281 83.054688 L 82.617188 59.769531 L 111.171875 69.511719 C 111.746094 69.707031 112.453125 69.210938 112.742188 68.402344 C 113.03125 67.597656 112.792969 66.777344 112.21875 66.582031 L 83.835938 56.898438 L 84.578125 55.148438 L 113.144531 64.894531 C 113.71875 65.089844 114.425781 64.59375 114.714844 63.785156 C 115.003906 62.980469 114.765625 62.160156 114.191406 61.964844 L 85.796875 52.277344 L 86.859375 49.773438 L 115.304688 59.476562 C 115.878906 59.671875 116.585938 59.171875 116.875 58.367188 C 117.160156 57.5625 116.925781 56.742188 116.347656 56.546875 L 88.078125 46.898438 L 89.089844 44.511719 L 117.765625 54.296875 C 118.34375 54.492188 119.050781 53.992188 119.335938 53.1875 C 119.625 52.382812 119.386719 51.5625 118.8125 51.367188 L 90.308594 41.640625 L 91.433594 38.984375 C 99.703125 19.5 143.199219 35.382812 134.378906 56.175781 L 115.683594 100.246094 C 113.703125 104.910156 109.460938 108.070312 104.59375 109.09375 C 104.976562 107.554688 105.035156 105.988281 104.808594 104.464844 C 104.917969 105.566406 104.855469 106.695312 104.597656 107.824219 C 103.449219 112.761719 98.859375 116.085938 93.710938 116.132812 L 84.988281 153.691406 C 84.453125 155.996094 82.386719 157.5 80.394531 157.039062 L 75.378906 155.875 C 73.382812 155.414062 72.191406 153.152344 72.726562 150.847656 L 82.492188 108.804688 C 81.714844 106.867188 81.5 104.71875 81.992188 102.585938 C 83.351562 96.738281 89.535156 93.148438 95.757812 94.59375 Z M 95.761719 94.589844 " fill-opacity="1" fill-rule="evenodd"/></svg>