<?xml version="1.0" encoding="utf-8"?>
<!-- Generator: Adobe Illustrator 23.0.3, SVG Export Plug-In . SVG Version: 6.00 Build 0)  -->
<svg version="1.1" id="Layer_1" xmlns="http://www.w3.org/2000/svg" xmlns:xlink="http://www.w3.org/1999/xlink" x="0px" y="0px"
	 viewBox="0 0 1000 1000" style="enable-background:new 0 0 1000 1000;" xml:space="preserve">
<style type="text/css">
	.st0{fill:#3882F1;}
	.st1{fill:#367DE8;}
	.st2{fill:#3479DF;}
	.st3{fill:#3274D6;}
	.st4{fill:#306FCD;}
	.st5{fill:#2F6BC4;}
	.st6{fill:#2D66BB;}
	.st7{fill:#2B61B2;}
	.st8{fill:#295DA9;}
	.st9{fill:#2758A0;}
</style>
<g id="Layer_12">
	<rect class="st0" width="1000" height="1000"/>
</g>
<g id="Layer_11">
	<polygon class="st1" points="1000,253.8 758.1,0 0,0 0,1000 1000,1000 	"/>
</g>
<g id="Layer_10">
	<polygon class="st2" points="1000,448.2 531.5,0 0,0 0,1000 1000,1000 	"/>
</g>
<g id="Layer_9">
	<polygon class="st3" points="1000,604.4 284.2,0 0,0 0,1000 1000,1000 	"/>
</g>
<g id="Layer_8">
	<polygon class="st4" points="1000,739.7 8.7,0 0,0 0,1000 1000,1000 	"/>
</g>
<g id="Layer_7">
	<polygon class="st5" points="1000,853.5 0,199 0,1000 1000,1000 	"/>
</g>
<g id="Layer_6">
	<polygon class="st6" points="1000,953.1 0,386.3 0,1000 1000,1000 	"/>
</g>
<g>
	<polygon class="st7" points="0,560 0,1000 905.7,1000 	"/>
</g>
<g id="Layer_3">
	<path class="st8" d="M0,740.7V1000h721.8C545.3,935.9,218,817.4,0,740.7z"/>
</g>
<g id="Layer_4">
	<polygon class="st9" points="0,908.3 0,1000 423.5,1000 	"/>
</g>
</svg>
